<svg xmlns="http://www.w3.org/2000/svg" width="88.78" height="40" viewBox="0 0 88.78 40">
  <path id="svg-logo" d="M50.081,40a1.3,1.3,0,0,1-1.3-1.3V20.65a4.39,4.39,0,1,0-8.78,0V38.7A1.3,1.3,0,0,1,38.7,40H33.821a1.3,1.3,0,0,1-1.3-1.3V20.65a11.815,11.815,0,0,1,2.027-6.637,11.907,11.907,0,0,1,5.222-4.3,11.854,11.854,0,0,1,11.257,1.094,11.9,11.9,0,0,1,4.3,5.222A11.8,11.8,0,0,1,56.26,20.6h0V38.7a1.3,1.3,0,0,1-1.3,1.3Zm14.729-.933a11.86,11.86,0,0,1-7.25-10.937V10.081a1.3,1.3,0,0,1,1.3-1.3H63.74a1.3,1.3,0,0,1,1.3,1.3V28.13a4.39,4.39,0,1,0,8.78,0h0V16.26H67.642a1.3,1.3,0,0,1-1.3-1.3V10.081a1.3,1.3,0,0,1,1.3-1.3h6.179V1.3a1.3,1.3,0,0,1,1.3-1.3H80a1.3,1.3,0,0,1,1.3,1.3V8.78h6.179a1.3,1.3,0,0,1,1.3,1.3v4.878a1.3,1.3,0,0,1-1.3,1.3H81.3V28.13h0a11.815,11.815,0,0,1-2.027,6.637,11.9,11.9,0,0,1-5.222,4.3,11.909,11.909,0,0,1-9.241,0Zm-50.081,0A11.86,11.86,0,0,1,7.48,28.13h0V16.26H1.3a1.3,1.3,0,0,1-1.3-1.3V10.081a1.3,1.3,0,0,1,1.3-1.3H7.48V1.3A1.3,1.3,0,0,1,8.78,0h4.878a1.3,1.3,0,0,1,1.3,1.3V8.78h6.179a1.3,1.3,0,0,1,1.3,1.3v4.878a1.3,1.3,0,0,1-1.3,1.3H14.959V28.13h0a4.39,4.39,0,1,0,8.78,0V10.081a1.3,1.3,0,0,1,1.3-1.3h4.878a1.3,1.3,0,0,1,1.3,1.3V28.13a11.813,11.813,0,0,1-2.027,6.637,11.9,11.9,0,0,1-5.222,4.3,11.909,11.909,0,0,1-9.241,0ZM57.561,3.74A3.74,3.74,0,1,1,61.3,7.48,3.74,3.74,0,0,1,57.561,3.74Zm-33.821,0a3.74,3.74,0,1,1,3.74,3.74A3.74,3.74,0,0,1,23.74,3.74Z" fill="#bababa"/>
</svg>
